<svg width="397" height="397" xmlns="http://www.w3.org/2000/svg" xmlns:xlink="http://www.w3.org/1999/xlink" xml:space="preserve" overflow="hidden"><g transform="translate(-493 -1863)"><path d="M496.5 1931.5C496.5 1895.6 525.602 1866.5 561.501 1866.5L821.499 1866.5C857.398 1866.5 886.5 1895.6 886.5 1931.5L886.5 2191.5C886.5 2227.4 857.398 2256.5 821.499 2256.5L561.501 2256.5C525.602 2256.5 496.5 2227.4 496.5 2191.5Z" stroke="#042433" stroke-width="6.875" stroke-miterlimit="8" fill-rule="evenodd"/><g><g><g><path d="M368.062 325 209.219 48.75C203.125 37.7812 187.281 37.7812 181.187 48.75L21.9375 325C15.8437 335.969 23.5625 349.375 36.1562 349.375L195 349.375 353.844 349.375C366.437 349.375 374.156 335.969 368.062 325ZM182.812 113.75 207.187 113.75 207.187 255.937 182.812 255.937 182.812 113.75ZM195 312.812C183.625 312.812 174.687 303.875 174.687 292.5 174.687 281.125 183.625 272.187 195 272.187 206.375 272.187 215.312 281.125 215.312 292.5 215.312 303.875 206.375 312.812 195 312.812Z" fill="#FFFFFF" transform="matrix(1 0 0 1 496 1866)"/></g></g></g></g></svg>