<svg xmlns="http://www.w3.org/2000/svg" width="824" height="824" viewBox="0 0 824 824" version="1.1"><path d="M 463 299.356 C 452.935 302.376, 446.519 307.102, 442.928 314.142 C 437.375 325.025, 445.098 339.388, 459.531 345.023 C 468.613 348.569, 480.410 348.394, 488.734 344.590 C 496.361 341.105, 503.394 333.963, 504.972 328.103 C 507.860 317.377, 500.091 306.106, 486 300.577 C 480.044 298.240, 468.723 297.640, 463 299.356 M 617.449 513.551 C 614.051 515.228, 611 519.677, 611 522.954 C 611 534.214, 628.270 538.115, 633.483 528.033 C 636.422 522.350, 634.412 516.373, 628.643 513.635 C 624.395 511.619, 621.409 511.597, 617.449 513.551" stroke="none" fill="#dc4c43" fill-rule="evenodd"/><path d="M 241.696 89.912 C 234.081 92.980, 228.522 98.194, 224.800 105.758 C 221.874 111.703, 221.506 113.374, 221.553 120.482 C 221.622 130.933, 224.627 137.478, 232.941 145.283 C 242.203 153.979, 242.390 154.591, 241.708 173.980 C 240.997 194.156, 238.860 222.998, 238.075 223.006 C 175.875 223.687, 174.789 223.766, 155 229.066 C 111.748 240.652, 78.713 272.970, 71.414 310.838 C 67.465 331.328, 71.512 347.519, 85.110 365.625 C 90.855 373.273, 91.004 373.630, 90.299 378 C 88.061 391.868, 90.741 435.597, 95.041 455.391 C 97.455 466.500, 102.392 477.431, 106.231 480.165 C 107.817 481.294, 109.244 482.057, 109.401 481.859 C 109.558 481.662, 112.020 474.575, 114.872 466.112 C 117.725 457.648, 122.354 446.105, 125.160 440.461 C 138.354 413.918, 159.285 394.780, 186.199 384.649 C 213.470 374.385, 252.239 375.249, 278.939 386.717 C 314.645 402.053, 338.988 427.982, 351.966 464.500 C 358.776 483.662, 360.836 506.102, 357.431 524.048 C 356.569 528.596, 356.135 533.400, 356.467 534.724 C 357.634 539.374, 360.446 539.695, 406 540.391 C 429.375 540.748, 455.475 541.251, 464 541.509 C 472.525 541.767, 492.534 542.230, 508.465 542.538 C 524.396 542.845, 537.558 543.224, 537.713 543.380 C 537.868 543.535, 538.865 547.062, 539.928 551.217 C 543.576 565.481, 554.209 582.826, 564.711 591.641 C 593.854 616.105, 638.823 617.113, 670 594 C 695.619 575.008, 707.945 548.097, 708.064 510.898 C 708.089 503.254, 708.422 496.993, 708.804 496.985 C 709.187 496.977, 717.354 496.516, 726.954 495.960 C 753.398 494.428, 759.785 492.405, 768.679 482.740 C 778.077 472.527, 780.488 463.958, 780.419 441 C 780.371 425.210, 780.102 422.523, 777.662 413.500 C 774.160 400.548, 764.939 382, 756.286 370.500 C 707.698 305.924, 619.945 275.201, 397.500 244.887 C 385.400 243.238, 362.450 240.132, 346.500 237.986 C 285.281 229.747, 274.691 228.117, 273.842 226.804 C 271.005 222.414, 265.750 182.889, 265.603 164.837 L 265.500 152.174 273.260 144.191 C 283.028 134.144, 285.451 129.148, 285.479 119 C 285.496 112.797, 285.019 110.521, 282.720 105.839 C 279.644 99.576, 274.334 94.248, 267.795 90.864 C 261.674 87.697, 248.395 87.212, 241.696 89.912 M 338.704 198.956 C 322.954 200.520, 332.080 214.254, 355.659 224.472 C 373.455 232.184, 392.782 236.018, 459.754 245.125 C 468.568 246.324, 469.140 246.286, 471.754 244.340 C 476.098 241.106, 476.584 238.283, 474.168 230.328 C 469.797 215.936, 457.265 208.616, 430 204.528 C 414.637 202.224, 389.686 200.114, 370.436 199.489 C 360.571 199.170, 350.700 198.789, 348.500 198.644 C 346.300 198.499, 341.892 198.639, 338.704 198.956 M 184 266.125 C 160.091 268.883, 141.293 277.775, 124.750 294.152 C 115.267 303.541, 113.034 306.759, 116.841 305.550 C 121.107 304.197, 140.366 300.818, 151.500 299.470 C 175.224 296.598, 208.634 298.065, 231.083 302.965 C 250.798 307.268, 278.882 319.045, 297 330.606 C 318.357 344.235, 341.833 365.795, 367.916 395.734 C 393.437 425.028, 408.903 432.754, 447.500 435.489 C 461.782 436.502, 550.423 439.485, 596.500 440.504 C 620.406 441.033, 639.885 441.587, 666.500 442.496 C 674.200 442.758, 693.348 443.263, 709.051 443.618 L 737.602 444.262 740.207 441.166 C 741.640 439.463, 743.111 436.304, 743.475 434.147 C 744.382 428.777, 742.479 422.150, 739.699 421.005 C 738.490 420.506, 722.425 419.400, 704 418.546 C 685.575 417.693, 666 416.767, 660.500 416.489 C 655 416.211, 646.225 415.767, 641 415.503 C 607.942 413.832, 532.023 409.188, 518 407.980 C 478.585 404.583, 453.982 398.354, 434.922 386.947 C 424.584 380.760, 417.024 374.728, 395.901 355.813 C 363.109 326.448, 345.176 312.797, 321.355 299.068 C 276.164 273.021, 226.816 261.185, 184 266.125 M 463 299.356 C 452.935 302.376, 446.519 307.102, 442.928 314.142 C 437.375 325.025, 445.098 339.388, 459.531 345.023 C 468.613 348.569, 480.410 348.394, 488.734 344.590 C 496.361 341.105, 503.394 333.963, 504.972 328.103 C 507.860 317.377, 500.091 306.106, 486 300.577 C 480.044 298.240, 468.723 297.640, 463 299.356 M 218.088 398.585 C 175.744 404.749, 142.651 434.573, 132.081 476.096 C 122.242 514.746, 132.588 554.462, 159.462 581.204 C 171.959 593.639, 188.078 603.042, 203.756 607.042 C 233.602 614.657, 264.643 609.544, 290.003 592.837 C 316.609 575.309, 335.388 547.491, 340.027 518.732 C 341.975 506.655, 340.835 486.564, 337.574 475.500 C 325.508 434.570, 291.174 404.951, 248.303 398.489 C 236.650 396.733, 230.681 396.752, 218.088 398.585 M 225 448.062 C 210.113 450.045, 194.076 461.687, 186.623 475.922 C 181.372 485.953, 179.645 493.023, 179.645 504.500 C 179.645 524.192, 187.360 539.733, 202.496 550.534 C 212.078 557.372, 221.067 560.217, 233.083 560.217 C 249.620 560.217, 261.806 555.218, 273.210 543.756 C 284.171 532.738, 289.250 520.110, 289.198 504 C 289.090 470.145, 258.609 443.587, 225 448.062 M 609.952 489.828 C 594.511 495.506, 585.725 508.014, 585.597 524.500 C 585.543 531.458, 585.943 533.367, 588.669 539.151 C 594.282 551.066, 603.922 558.118, 617.258 560.066 C 628.487 561.706, 642.300 556.978, 649.183 549.139 C 653.529 544.189, 657.819 534.525, 658.581 527.964 C 659.905 516.579, 653.767 502.590, 644.282 495.376 C 635.004 488.319, 620.451 485.967, 609.952 489.828 M 60 567.690 C 60 568.543, 63.743 574.474, 68.317 580.870 C 77.513 593.729, 81.552 599.893, 90.025 614 C 105.428 639.645, 119 665.460, 119 669.114 C 119 673.018, 112.875 677.385, 100.975 681.965 C 88.983 686.580, 85.991 688.637, 86.015 692.250 C 86.039 695.700, 87.352 697.062, 91.604 698.048 C 95.929 699.052, 741.813 699.387, 746.806 698.389 C 753.782 696.994, 756.407 690.038, 751.433 686.126 C 741.951 678.668, 675.889 675.004, 550.821 675.002 C 484.267 675, 475.972 674.829, 474.571 673.429 C 471.653 670.510, 471.996 669.852, 488.233 647.185 C 494.266 638.762, 498.927 631.594, 498.590 631.257 C 496.456 629.122, 465.224 649.432, 448.254 663.989 C 434.517 675.773, 435.303 675.500, 415.161 675.500 C 398.146 675.500, 397.787 675.456, 395.911 673.139 C 394.860 671.841, 394 670.460, 394 670.070 C 394 668.917, 401.026 657.690, 407.964 647.756 C 417.148 634.607, 436.162 615.909, 447.750 608.631 C 452.837 605.435, 457 602.420, 457 601.930 C 457 598.064, 434.253 601.911, 421.346 607.959 C 398.269 618.773, 383.503 631.795, 358.698 663.206 C 354.482 668.544, 350.046 673.440, 348.840 674.085 C 345.501 675.872, 334.811 676.423, 330.578 675.026 C 324.565 673.041, 324.233 670.741, 328.477 660.488 C 335.028 644.662, 350.062 610.981, 360.136 589.562 C 365.559 578.031, 369.651 568.251, 369.229 567.829 C 368.807 567.407, 365.995 568.204, 362.981 569.600 C 348.970 576.090, 317.257 615.586, 290.301 660.115 C 283.419 671.483, 279.767 674.635, 272.412 675.554 C 263.289 676.694, 253.655 675.484, 248.241 672.518 C 245.633 671.089, 238.775 666.086, 233 661.400 C 219.238 650.231, 207.893 642.119, 198.291 636.580 C 189.097 631.277, 176.260 626.333, 175.006 627.611 C 174.505 628.122, 180.249 637.229, 188.494 649 C 196.392 660.275, 203.056 670.238, 203.304 671.139 C 204.342 674.915, 202.648 675.381, 187.649 675.441 C 170.074 675.512, 170.550 675.766, 160.333 660.917 C 140.967 632.770, 129.649 618.714, 112.647 601.692 C 96.201 585.228, 75.120 570.450, 63.250 567.066 C 60.582 566.306, 60 566.417, 60 567.690" stroke="none" fill="#7b8b3a" fill-rule="evenodd"/></svg>