<svg width="397" height="396" xmlns="http://www.w3.org/2000/svg" xmlns:xlink="http://www.w3.org/1999/xlink" xml:space="preserve" overflow="hidden"><g transform="translate(-493 -1300)"><path d="M496.5 1368.33C496.5 1332.53 525.527 1303.5 561.334 1303.5L821.666 1303.5C857.473 1303.5 886.5 1332.53 886.5 1368.33L886.5 1627.67C886.5 1663.47 857.473 1692.5 821.666 1692.5L561.334 1692.5C525.527 1692.5 496.5 1663.47 496.5 1627.67Z" stroke="#042433" stroke-width="6.875" stroke-miterlimit="8" fill-rule="evenodd"/><g><g><g><path d="M194.5 48.625 194.5 48.625 24.3125 210.708 42.5469 226.106 194.5 81.852 194.5 81.852 346.453 226.106 364.687 210.708Z" fill="#FFFFFF" transform="matrix(1.00257 0 0 1 496 1303)"/><path d="M72.9375 220.028 72.9375 340.375 170.187 340.375 170.187 239.073 218.812 239.073 218.812 340.375 316.062 340.375 316.062 220.028 194.5 104.544 72.9375 220.028Z" fill="#FFFFFF" transform="matrix(1.00257 0 0 1 496 1303)"/></g></g></g></g></svg>